<svg height="192" viewBox="0 0 192 192" width="192" xmlns="http://www.w3.org/2000/svg"><path d="m0 0h192v192h-192z" fill="none"/><path d="m93.16 28.09 63.43 24.52v93.78l-57.71 17.61-63.47-17.82v-93.82zm0-12.09a10.87 10.87 0 0 0 -4.23.85l-58.84 24.73a10.9 10.9 0 0 0 -6.68 10.05v95.37a10.91 10.91 0 0 0 8 10.49l64.59 18.11a10.86 10.86 0 0 0 2.94.4 11 11 0 0 0 3.17-.47l58.79-17.9a10.89 10.89 0 0 0 7.73-10.42v-95.35a10.89 10.89 0 0 0 -7-10.17l-64.54-25a10.9 10.9 0 0 0 -3.94-.69z"/><path d="m50.02 118.55v-43.47l26.83 37v-43.48m30.38 12.54 35.77 8.86m-35.77 23.14 35.77 8.86m-35.75-24.91 24.75 5.91m-100 46 61.22-17.85 66.78 17.85m-66.78-21v-104" fill="none" stroke="#000" stroke-linecap="round" stroke-linejoin="round" stroke-width="12"/></svg>