<svg width="448" height="512" viewBox="0 0 448 512" fill="none" xmlns="http://www.w3.org/2000/svg">
<g clip-path="url(#clip0_35_2)">
<path d="M161.623 241.408C159.362 242.197 155.638 242.197 153.377 241.408C134.092 234.901 91 207.754 91 161.743C91 141.433 107.559 125 127.974 125C140.077 125 150.784 130.784 157.5 139.724C164.217 130.784 174.99 125 187.026 125C207.442 125 224 141.433 224 161.743C224 207.754 180.908 234.901 161.623 241.408Z" stroke="black" stroke-width="27" stroke-linecap="round" stroke-linejoin="round"/>
<path d="M458 334.106V66C458 39.49 436.51 18 410 18H58C31.49 18 10 39.49 10 66V417.988C10 444.498 31.49 465.988 58 465.988H326.118C338.848 465.988 351.057 460.931 360.059 451.929L443.941 368.047C452.943 359.045 458 346.836 458 334.106ZM330 414.106V337.988H406.118L330 414.106ZM410 66V289.988H306C292.745 289.988 282 300.733 282 313.988V417.988H58V66H410Z" fill="black"/>
</g>
<defs>
<clipPath id="clip0_35_2">
<rect width="448" height="512" fill="white"/>
</clipPath>
</defs>
</svg>
